<svg xmlns="http://www.w3.org/2000/svg" xml:space="preserve"
  style="fill-rule:evenodd;clip-rule:evenodd;stroke-linejoin:round;stroke-miterlimit:2"
  viewBox="0 0 410 409"><path d="M3396.8-758.162h622.4v594.201h-622.4z" style="fill:none" transform="matrix(.65641 0 0 .68787 -2229.18 521.518)"/><path d="M701.788 304.434c4.481-.296 9.002-.447 13.558-.447 112.098 0 203.108 91.01 203.108 203.109s-91.01 203.109-203.108 203.109c-112.099 0-203.109-91.01-203.109-203.109 0-101.994 75.342-186.53 173.359-200.941l-26.465 28.852s-90.647 26.002-117.871 117.871c0 0-29.657 68.675 17.654 147.931 0 0 44.337 71.956 119.763 82.77 0 0 76.508-50.99 14.869-106.787 0 0-13.247 4.221-27.575 20.982 0 0-12.166 6.488-22.98 7.57 0 0-28.927-.271-33.793 1.351 0 0-4.796.805-7.342 2.799 0 0 9.973-26.099 28.659-37.518 0 0 27.683-20.59 55.886-10.382 0 0 43.947 11.42 42.909 61.077 0 0 2.769 41.352-31.49 64.883l13.323.519s24.742-23.358 31.317-47.754c0 0 12.328-53.55-15.572-86.64 0 0-79.966-82.812-82.498-132.947 0 0-5.166-33.409 10.406-64.553 0 0 19.299-37.353 46.992-51.745Zm54.133 378.877 26.612-8.448s3.802-26.612 26.19-38.017c0 0 12.25-3.802 35.905-9.294 0 0 14.363-2.956 10.561-23.232 0 0-4.647-13.94 1.267-21.121 0 0 6.617-7.53 9.386-10.714 0 0-4.014-6.921-13.842-10.104 0 0 12.458-4.429 17.994-12.319 0 0-4.014-5.399-7.613-7.613 0 0-2.906-10.243 9.274-16.887 0 0 9.153-1.557 13.998-8.34 0 0 5.979-5.924-1.993-14.783 0 0-9.323-11.839-10.188-22.394 0 0-10.879-41.33-25.207-61.336 0 0-31.631-45.688-74.886-49.473 0 0-41.633-3.515-61.909 34.334 0 0-24.872 29.738-10.273 75.426 0 0 12.165 30.82 29.467 44.337 0 0 36.767 38.389 39.201 69.749 0 0 5.407 23.791 1.892 45.959 0 0-7.341 32.849-15.836 44.27Zm-23.293-190.73s26.47-2.631 44.853 3.046c0 0 9.462.27 26.494 18.384 0 0 5.34 6.46 7.555 7.013 2.214.554-4.707 2.077-13.704 2.215 0 0-20.07.831-28.237-8.72 0 0-11.488-10.658-15.641-13.565 0 0-7.62-4.841-21.32-8.373Zm-21.578-22.504s15.536-16.401 38.606-25.052c23.069-8.652 28.548-6.345 49.311-2.596 0 0 13.265 6.921 17.302 10.093 0 0-11.246 2.019-29.414 14.995 0 0-10.669 4.903-27.106 2.884 0 0-29.63-11.03-48.699-.324Zm-1.631-16.751c.369-9.782 19.932-40.049 19.932-40.049 8.674-14.949 29.898-22.147 29.898-22.147 12.55-4.429 29.16-.738 29.16-.738-8.674.738-21.962 19.932-21.962 19.932-7.936 12.734-31.56 19.194-31.56 19.194-9.781 2.953-25.468 23.808-25.468 23.808Zm-8.781-125.699c-15.131 7.682-28.055 26.645-28.055 26.645-14.534 16.333-12.734 55.367-12.734 55.367 3.46 33.082 24.5 57.235 24.5 57.235-6.367-37.857 8.028-61.457 8.028-61.457-6.367-11.35-4.845-27.268-4.845-27.268 4.153-26.991 27.269-38.757 27.269-38.757-4.983 3.737-2.951 33.497-2.951 33.497 29.578-23.946 54.121-24.223 54.121-24.223 17.856-2.076 47.339 8.305 47.339 8.305-36.127-27.96-83.742-29.76-83.742-29.76l-28.93.416Zm-20.546 218.841c-18.86-6.748-32.701-2.076-32.701-2.076-22.666 8.824-31.49 5.709-31.49 5.709-20.417 1.039-38.411-25.434-38.411-25.434-5.364-8.478-9.862-26.991-7.44-19.724 2.422 7.267 26.818 11.419 26.818 11.419 27.684 1.038 40.661 6.229 40.661 6.229 8.824 2.595 42.563 23.877 42.563 23.877ZM598.96 393.977l1.093 9.3c2.703 22.851 24.06 43.255 24.06 43.255 11.896 10.003 21.087 31.361 21.087 31.361 3.785 18.924 34.605 52.717 34.605 52.717l-27.576-17.843c-12.706-5.677-34.334-16.22-34.334-16.22-13.787-4.326-24.644-20.558-24.644-20.558-24.05-36.853 5.709-82.012 5.709-82.012Z" style="fill:#abeeff" transform="matrix(1 0 0 1 -510.546 -302.73)"/></svg>